<svg xmlns="http://www.w3.org/2000/svg" width="1152" height="720" viewBox="0 0 1152 720"><g fill="none" stroke="#c5ac78" stroke-opacity=".12" stroke-width="2"><path d="M-150 95 Q 270 -90 520 160 T 1250 180"/><path d="M-128 137 Q 270 -47 520 192 T 1250 219"/><path d="M-106 179 Q 270 -4 520 224 T 1250 258"/><path d="M-84 221 Q 270 39 520 256 T 1250 297"/><path d="M-62 263 Q 270 82 520 288 T 1250 336"/><path d="M-40 305 Q 270 125 520 320 T 1250 375"/><path d="M-18 347 Q 270 168 520 352 T 1250 414"/><path d="M4 389 Q 270 211 520 384 T 1250 453"/><path d="M26 431 Q 270 254 520 416 T 1250 492"/><path d="M48 473 Q 270 297 520 448 T 1250 531"/><path d="M70 515 Q 270 340 520 480 T 1250 570"/><path d="M92 557 Q 270 383 520 512 T 1250 609"/></g><g fill="#c5ac78" opacity=".1"><circle cx="180" cy="590" r="58"/><circle cx="990" cy="130" r="42"/></g></svg>
